<svg xmlns="http://www.w3.org/2000/svg" viewBox="0 0 256 256" role="img" aria-label="Priya">
  <defs>
    <linearGradient id="bg-priya" x1="0" y1="0" x2="1" y2="1">
      <stop offset="0%" stop-color="#6e1d3a"/>
      <stop offset="100%" stop-color="#280b14"/>
    </linearGradient>
    <clipPath id="circ-priya"><circle cx="128" cy="128" r="128"/></clipPath>
  </defs>
  <g clip-path="url(#circ-priya)">
    <rect width="256" height="256" fill="url(#bg-priya)"/>
    <circle cx="128" cy="90" r="90" fill="#ffffff" opacity="0.06"/>
    <path d="M84 112 C86 68 108 48 128 48 C150 48 172 68 172 112 C160 84 140 76 128 76 C112 76 96 88 84 112 Z" fill="#6b3a22"/>
    <path d="M108 168 L148 168 L158 214 L98 214 Z" fill="#c9a07a"/><path d="M36 240 L70 186 Q128 210 186 186 L220 240 Z" fill="#3a5a58"/><path d="M108 176 L128 214 L148 176" fill="#c9a07a"/>
    <ellipse cx="70" cy="128" rx="10" ry="16" fill="#c9a07a"/>
    <ellipse cx="186" cy="128" rx="10" ry="16" fill="#c9a07a"/>
    <ellipse cx="128" cy="112" rx="54" ry="65" fill="#c9a07a"/>
    
    <path d="M92 98 Q106 92 118 100" fill="none" stroke="#532d1a" stroke-width="3.2" stroke-linecap="round"/><path d="M138 100 Q150 92 164 98" fill="none" stroke="#532d1a" stroke-width="3.2" stroke-linecap="round"/>
    <ellipse cx="106" cy="114" rx="12" ry="8" fill="#f7f1ea"/><circle cx="106" cy="114" r="6" fill="#4a3020"/><circle cx="106" cy="114" r="3" fill="#120c08"/><circle cx="108" cy="112" r="2" fill="#fff" opacity="0.85"/><path d="M94 113 Q106 104 118 113" fill="none" stroke="#82684f" stroke-width="1.4"/><ellipse cx="150" cy="114" rx="12" ry="8" fill="#f7f1ea"/><circle cx="150" cy="114" r="6" fill="#4a3020"/><circle cx="150" cy="114" r="3" fill="#120c08"/><circle cx="152" cy="112" r="2" fill="#fff" opacity="0.85"/><path d="M138 113 Q150 104 162 113" fill="none" stroke="#82684f" stroke-width="1.4"/>
    <path d="M128 122 Q122 138 128 142 Q134 138 128 122" fill="#b08c6b"/><ellipse cx="124" cy="142" rx="3" ry="2.2" fill="#a48364" opacity="0.5"/><ellipse cx="132" cy="142" rx="3" ry="2.2" fill="#a48364" opacity="0.5"/>
    <path d="M112 154 Q128 164 144 154" fill="#b56a6a"/><path d="M118 155 Q128 160 138 155" fill="#f4e6e0" opacity="0.55"/>
    
    <path d="M92 86 C110 74 128 82 148 76 C136 70 118 68 92 86 Z" fill="#6b3a22"/>
    <circle cx="104" cy="114" r="16" fill="none" stroke="#1a1420" stroke-width="3" opacity="0.85"/><circle cx="152" cy="114" r="16" fill="none" stroke="#1a1420" stroke-width="3" opacity="0.85"/><path d="M120 114 H136" stroke="#1a1420" stroke-width="3"/><path d="M88 112 H78" stroke="#1a1420" stroke-width="3"/><path d="M168 112 H178" stroke="#1a1420" stroke-width="3"/><circle cx="104" cy="114" r="14" fill="#9ec9e8" opacity="0.12"/><circle cx="152" cy="114" r="14" fill="#9ec9e8" opacity="0.12"/>
    <circle cx="70" cy="138" r="3.5" fill="#c0a060"/><circle cx="186" cy="138" r="3.5" fill="#c0a060"/>
  </g>
</svg>
