<svg xmlns="http://www.w3.org/2000/svg" viewBox="0 0 256 256" role="img" aria-label="Samir">
  <defs>
    <linearGradient id="bg-samir" x1="0" y1="0" x2="1" y2="1">
      <stop offset="0%" stop-color="#2a1d4a"/>
      <stop offset="100%" stop-color="#0e081c"/>
    </linearGradient>
    <clipPath id="circ-samir"><circle cx="128" cy="128" r="128"/></clipPath>
  </defs>
  <g clip-path="url(#circ-samir)">
    <rect width="256" height="256" fill="url(#bg-samir)"/>
    <circle cx="128" cy="90" r="90" fill="#ffffff" opacity="0.06"/>
    <ellipse cx="128" cy="88" rx="69" ry="58" fill="#2c1810"/><rect x="72" y="110" width="12" height="70" rx="6" fill="#2c1810"/><rect x="86" y="110" width="12" height="84" rx="6" fill="#26150e"/><rect x="102" y="110" width="12" height="98" rx="6" fill="#2c1810"/><rect x="142" y="110" width="12" height="70" rx="6" fill="#26150e"/><rect x="158" y="110" width="12" height="84" rx="6" fill="#2c1810"/><rect x="172" y="110" width="12" height="98" rx="6" fill="#26150e"/>
    <path d="M108 168 L148 168 L158 214 L98 214 Z" fill="#a56a3a"/><path d="M40 236 L68 188 L98 210 L158 210 L188 188 L216 236 Z" fill="#2d5a45"/><rect x="108" y="168" width="40" height="46" rx="10" fill="#244837"/>
    <ellipse cx="70" cy="128" rx="10" ry="16" fill="#a56a3a"/>
    <ellipse cx="186" cy="128" rx="10" ry="16" fill="#a56a3a"/>
    <ellipse cx="128" cy="112" rx="53" ry="66" fill="#a56a3a"/>
    
    <path d="M89 100 Q103 91 115 99" fill="none" stroke="#22120c" stroke-width="3.2" stroke-linecap="round"/><path d="M141 99 Q153 91 167 100" fill="none" stroke="#22120c" stroke-width="3.2" stroke-linecap="round"/>
    <ellipse cx="103" cy="113" rx="12" ry="8" fill="#f7f1ea"/><circle cx="103" cy="113" r="6" fill="#1a1a1a"/><circle cx="103" cy="113" r="3" fill="#120c08"/><circle cx="105" cy="111" r="2" fill="#fff" opacity="0.85"/><path d="M91 112 Q103 103 115 112" fill="none" stroke="#6b4425" stroke-width="1.4"/><ellipse cx="153" cy="113" rx="12" ry="8" fill="#f7f1ea"/><circle cx="153" cy="113" r="6" fill="#1a1a1a"/><circle cx="153" cy="113" r="3" fill="#120c08"/><circle cx="155" cy="111" r="2" fill="#fff" opacity="0.85"/><path d="M141 112 Q153 103 165 112" fill="none" stroke="#6b4425" stroke-width="1.4"/>
    <path d="M128 121 Q122 137 128 141 Q134 137 128 121" fill="#915d33"/><ellipse cx="124" cy="141" rx="3" ry="2.2" fill="#87562f" opacity="0.5"/><ellipse cx="132" cy="141" rx="3" ry="2.2" fill="#87562f" opacity="0.5"/>
    <path d="M114 157 Q128 163 142 157" fill="none" stroke="#80522d" stroke-width="3" stroke-linecap="round"/>
    <path d="M108 150 Q128 160 148 150 Q140 156 128 154 Q116 156 108 150 Z" fill="#29160f"/>
    
    
    
  </g>
</svg>
