<svg xmlns="http://www.w3.org/2000/svg" viewBox="0 0 256 256" role="img" aria-label="סיון">
  <defs>
    <linearGradient id="bg-sivan" x1="0" y1="0" x2="1" y2="1">
      <stop offset="0%" stop-color="#1d3a6e"/>
      <stop offset="100%" stop-color="#0b1428"/>
    </linearGradient>
    <clipPath id="circ-sivan"><circle cx="128" cy="128" r="128"/></clipPath>
  </defs>
  <g clip-path="url(#circ-sivan)">
    <rect width="256" height="256" fill="url(#bg-sivan)"/>
    <circle cx="128" cy="90" r="90" fill="#ffffff" opacity="0.06"/>
    <ellipse cx="128" cy="92" rx="69" ry="62" fill="#111111"/><path d="M78 120 C70 160 74 200 68 232" stroke="#111111" stroke-width="14" fill="none" stroke-linecap="round"/><path d="M90 122 C86 164 90 204 84 236" stroke="#0e0e0e" stroke-width="12" fill="none" stroke-linecap="round"/><path d="M178 120 C186 160 182 200 188 232" stroke="#111111" stroke-width="14" fill="none" stroke-linecap="round"/><path d="M166 122 C170 164 166 204 172 236" stroke="#0e0e0e" stroke-width="12" fill="none" stroke-linecap="round"/>
    <path d="M108 168 L148 168 L158 214 L98 214 Z" fill="#a56a3a"/><path d="M40 236 L68 188 L98 210 L158 210 L188 188 L216 236 Z" fill="#2a4a6b"/><rect x="108" y="168" width="40" height="46" rx="10" fill="#213b55"/>
    <ellipse cx="70" cy="128" rx="10" ry="16" fill="#a56a3a"/>
    <ellipse cx="186" cy="128" rx="10" ry="16" fill="#a56a3a"/>
    <ellipse cx="128" cy="112" rx="59" ry="68" fill="#a56a3a"/>
    
    <path d="M91 100 Q105 91 117 99" fill="none" stroke="#0d0d0d" stroke-width="3.2" stroke-linecap="round"/><path d="M139 99 Q151 91 165 100" fill="none" stroke="#0d0d0d" stroke-width="3.2" stroke-linecap="round"/>
    <ellipse cx="105" cy="113" rx="12" ry="8" fill="#f7f1ea"/><circle cx="105" cy="113" r="7" fill="#1a1a1a"/><circle cx="105" cy="113" r="4" fill="#120c08"/><circle cx="107" cy="111" r="2" fill="#fff" opacity="0.85"/><path d="M93 112 Q105 103 117 112" fill="none" stroke="#6b4425" stroke-width="1.4"/><ellipse cx="151" cy="113" rx="12" ry="8" fill="#f7f1ea"/><circle cx="151" cy="113" r="7" fill="#1a1a1a"/><circle cx="151" cy="113" r="4" fill="#120c08"/><circle cx="153" cy="111" r="2" fill="#fff" opacity="0.85"/><path d="M139 112 Q151 103 163 112" fill="none" stroke="#6b4425" stroke-width="1.4"/>
    <path d="M128 121 Q122 137 128 141 Q134 137 128 121" fill="#915d33"/><ellipse cx="124" cy="141" rx="3" ry="2.2" fill="#87562f" opacity="0.5"/><ellipse cx="132" cy="141" rx="3" ry="2.2" fill="#87562f" opacity="0.5"/>
    <path d="M114 157 Q128 163 142 157" fill="none" stroke="#87562f" stroke-width="3" stroke-linecap="round"/>
    
    
    
    <circle cx="70" cy="138" r="8" fill="none" stroke="#d8d0c4" stroke-width="3"/><circle cx="186" cy="138" r="8" fill="none" stroke="#d8d0c4" stroke-width="3"/>
  </g>
</svg>
